PathFileType	3	(X/Y/Z)	C:\Users\koon_\Desktop\
DataRate	CameraRate	NumFrames	NumMarkers	Units	OrigDataRate	OrigDataStartFrame	OrigNumFrames
100.0	100.0	5	27	mm	100.0	757	2016	
Frame#	Time	get:LFHD			get:RFHD			get:LBHD			get:RBHD			get:C7			get:T10			get:CLAV			get:STRN			get:RBAK			get:LSHO			get:LUPA			get:LELB			get:LFRA			get:LWRA			get:LWRB			get:LFIN			get:RSHO			get:RUPA			get:RELB			get:RFRA			get:RWRA			get:RWRB			get:RFIN			get:LASI			get:RASI			get:LPSI			get:RPSI			
		X1	Y1	Z1	X2	Y2	Z2	X3	Y3	Z3	X4	Y4	Z4	X5	Y5	Z5	X6	Y6	Z6	X7	Y7	Z7	X8	Y8	Z8	X9	Y9	Z9	X10	Y10	Z10	X11	Y11	Z11	X12	Y12	Z12	X13	Y13	Z13	X14	Y14	Z14	X15	Y15	Z15	X16	Y16	Z16	X17	Y17	Z17	X18	Y18	Z18	X19	Y19	Z19	X20	Y20	Z20	X21	Y21	Z21	X22	Y22	Z22	X23	Y23	Z23	X24	Y24	Z24	X25	Y25	Z25	X26	Y26	Z26	X27	Y27	Z27	
757	7.56	383.55713	1420.4199	32.800327	258.43036	1467.7903	-13.142303	400.41135	1382.8439	-124.0893	276.37927	1404.0682	-167.10254	220.34769	1274.9175	-149.63229	78.763969	1136.9139	-232.67717	169.181	1175.2905	23.343889	53.043453	1020.615	22.524786	114.40977	1280.6254	-177.94548	313.61511	1167.9917	-94.810959	326.34344	1009.9338	-110.75508	291.63818	815.7135	-141.64731	257.71143	701.36194	-60.197525	214.3998	634.3269	-30.41337	246.54404	618.32074	-108.16284	261.54773	553.20752	-33.076439	120.46596	1343.4561	-41.414051	-95.383156	1234.0791	-53.762486	-171.72333	1168.0706	-135.95233	-175.67784	1100.444	-61.294693	-207.35324	948.12531	-56.430878	-271.4165	975.33582	-100.95517	-277.91269	908.09186	-25.23107	118.66645	875.73944	-43.810642	-146.18422	900.9834	-53.590038	39.779121	955.30603	-265.35861	-50.084637	966.42535	-267.15051
758	7.57	374.25745	1429.5913	31.647451	247.83148	1474.2126	-13.459063	391.04251	1392.8842	-125.42458	266.40308	1411.3914	-167.86758	214.14143	1279.9705	-150.37804	75.68277	1138.333	-232.925	165.47437	1179.3235	22.913805	52.801125	1021.8928	22.410511	108.02031	1283.0516	-178.53671	310.01523	1175.5662	-95.371422	325.82968	1017.6769	-110.76288	293.03485	823.01428	-141.08818	258.51212	707.77728	-60.188614	215.06213	640.37903	-31.536146	248.71237	624.93768	-108.69129	262.38824	559.32928	-33.503342	112.64553	1346.1959	-42.271778	-100.47342	1231.7454	-54.002392	-175.68887	1164.0961	-136.15489	-179.23914	1096.6653	-61.291054	-209.22357	944.03949	-56.237	-273.18112	970.41132	-101.40911	-279.65372	903.39563	-25.393896	120.19314	876.63373	-44.284389	-144.90549	899.74255	-52.639503	39.515079	955.67798	-265.22696	-50.433929	966.03351	-266.54144
759	7.58	364.69562	1438.5011	30.450182	237.06499	1480.4277	-13.859883	381.42142	1402.6644	-126.86928	256.14429	1418.5079	-168.49768	207.61797	1284.9818	-151.22337	72.515434	1139.5947	-233.05138	161.6902	1183.3197	22.451645	52.61364	1023.1992	22.237429	101.45068	1285.4398	-179.37769	306.13681	1183.1466	-96.087898	325.01633	1025.5057	-110.89639	294.35693	830.401	-140.69174	259.41071	714.34839	-60.177589	215.80978	646.49585	-32.594273	251.12462	631.53241	-109.2288	263.47086	565.58551	-33.884563	104.69703	1348.8643	-43.147972	-105.55188	1229.2435	-54.167114	-179.58614	1159.9791	-136.21634	-182.76622	1092.7305	-61.235767	-210.90701	939.85925	-56.042938	-274.84082	965.37213	-101.81349	-281.17902	898.45032	-25.65122	121.69356	877.48438	-44.821873	-143.53093	898.65845	-51.350758	39.240639	955.90558	-264.89984	-50.832909	965.57855	-265.80255
760	7.59	354.97989	1447.1799	29.164583	226.17921	1486.4409	-14.242715	371.54303	1412.198	-128.26909	245.71571	1425.4125	-169.15877	200.9716	1289.8418	-152.00475	69.302567	1140.913	-233.3428	157.86331	1187.4906	22.15103	52.466522	1024.5586	22.071407	94.704109	1287.6206	-180.15257	301.99884	1190.7612	-96.793663	324.06097	1033.3721	-111.07109	295.64905	837.79327	-140.49045	260.34668	721.00317	-60.235836	216.62106	652.8028	-33.673855	253.69823	638.27112	-109.65096	264.72726	572.02307	-34.107349	96.594421	1351.3632	-43.925667	-110.47952	1226.5391	-54.109848	-183.42752	1155.7201	-136.13692	-186.13147	1088.6066	-61.076008	-212.56468	935.36713	-55.486336	-276.25946	960.28687	-102.1411	-282.5304	893.3833	-26.114038	123.18402	878.35016	-45.30431	-142.16988	897.59021	-49.982693	38.977222	956.16241	-264.64191	-51.12323	965.19293	-265.13776
761	7.6	345.11221	1455.5334	27.904324	215.33472	1492.2346	-14.571518	361.47287	1421.4055	-129.76988	235.25153	1432.267	-170.05685	194.07547	1294.6266	-152.922	66.008972	1142.2446	-233.79129	153.7981	1191.4579	21.613831	52.23843	1025.9314	21.999168	87.874924	1289.7134	-180.90074	297.60226	1198.2427	-97.490463	322.83438	1041.2152	-111.25528	296.91885	845.21948	-140.47325	261.25888	727.70642	-60.341972	217.4651	659.08466	-34.707893	256.44083	644.99609	-109.95205	266.15744	578.59607	-34.161667	88.428093	1353.735	-44.968521	-115.37489	1223.7152	-54.161102	-187.18445	1151.4063	-136.01395	-189.4507	1084.3439	-60.942589	-213.94383	931.0213	-55.32296	-277.66354	955.14771	-102.57392	-283.63409	888.23798	-26.575085	124.59261	879.26794	-45.792732	-140.83954	896.5058	-48.395939	38.674686	956.36768	-264.34042	-51.351433	964.67126	-264.35413
